<?xml version="1.0" encoding="UTF-8" standalone="no"?>
<!-- Created with Inkscape (http://www.inkscape.org/) -->

<svg
   xmlns:dc="http://purl.org/dc/elements/1.1/"
   xmlns:cc="http://creativecommons.org/ns#"
   xmlns:rdf="http://www.w3.org/1999/02/22-rdf-syntax-ns#"
   xmlns:svg="http://www.w3.org/2000/svg"
   xmlns="http://www.w3.org/2000/svg"
   xmlns:sodipodi="http://sodipodi.sourceforge.net/DTD/sodipodi-0.dtd"
   xmlns:inkscape="http://www.inkscape.org/namespaces/inkscape"
   width="1080"
   height="270"
   id="svg2"
   version="1.1"
   inkscape:version="0.48.2 r9819"
   sodipodi:docname="PSI_CatFence.svg">
  <defs
     id="defs4" />
  <sodipodi:namedview
     id="base"
     pagecolor="#ffffff"
     bordercolor="#666666"
     borderopacity="1.0"
     inkscape:pageopacity="0.0"
     inkscape:pageshadow="2"
     inkscape:zoom="0.7"
     inkscape:cx="463.92486"
     inkscape:cy="168.06561"
     inkscape:document-units="px"
     inkscape:current-layer="layer1"
     showgrid="false"
     units="in"
     inkscape:window-width="1366"
     inkscape:window-height="693"
     inkscape:window-x="-9"
     inkscape:window-y="-9"
     inkscape:window-maximized="1" />
  <metadata
     id="metadata7">
    <rdf:RDF>
      <cc:Work
         rdf:about="">
        <dc:format>image/svg+xml</dc:format>
        <dc:type
           rdf:resource="http://purl.org/dc/dcmitype/StillImage" />
        <dc:title></dc:title>
      </cc:Work>
    </rdf:RDF>
  </metadata>
  <g
     inkscape:label="Layer 1"
     inkscape:groupmode="layer"
     id="layer1"
     transform="translate(0,-782.3597)">
    <path
       style="fill:#060400;stroke:#000000;stroke-width:0.97329228999999995px;stroke-linecap:butt;stroke-linejoin:miter;stroke-opacity:1;fill-opacity:1"
       d="m 254.93829,784.15386 c -3.91189,2.69139 -7.32863,4.19417 -8.71875,9.7328 -11.16459,3.6182 -12.7411,20.08879 -12.01523,25.29464 -31.45528,30.62467 -42.84616,77.0504 -20.82852,97.50865 l 0,13.95426 c -0.16007,2.2e-4 -0.30886,-2.5e-4 -0.46875,0 l -0.0312,0 c -3.34837,-0.005 -6.70093,4.6e-4 -10.0625,0 -0.0124,-6e-5 -0.0188,5e-5 -0.0312,0 -2.70431,-0.009 -5.40044,-0.008 -8.125,0 -3.16793,0.006 -6.33448,0.0268 -9.46875,0.0293 l -0.0312,0 c -3.49616,-0.005 -6.97769,0.003 -10.40625,0 -0.0131,-4e-5 -0.0182,3e-5 -0.0312,0 -3.33875,-0.008 -6.50251,-0.028 -9.5,-0.14658 -0.0444,-0.003 -0.11177,0.003 -0.15625,0 -3.06291,-0.17099 -6.45226,-0.59563 -10.1875,-0.99673 l -0.625,-0.0586 -0.625,0 c -4.42972,0.008 -8.89148,0.005 -13.34375,0 -0.0122,-5e-5 -0.019,4e-5 -0.0312,0 -3.0105,-0.0126 -6.07864,-0.008 -9.21875,0 -2.43961,9.3e-4 -4.89284,-0.003 -7.34375,0 -2.86774,0.004 -5.71445,-0.004 -8.5625,0 l -0.0312,0 c -3.09479,8e-4 -6.18542,0.0159 -9.25,0 l -0.0312,0 -0.0312,0 c -2.47247,9.3e-4 -4.98144,-0.004 -7.468747,0 -3.239522,0.005 -6.476078,0.003 -9.6875,0 l -0.03125,0 c -4.110122,-0.008 -8.293204,-0.0395 -12.5629,0.0294 l -0.0625,0 -0.03125,0 c -11.363606,0.2783 -22.699102,1.51634 -33.875,3.51788 0.27405,-8.88388 0.648278,-17.73541 1.21875,-26.47204 l 0.875,-15.21483 c -6.477987,1.60486 -14.045362,4.80988 -16.21875,0 l -8.09375,5.10092 -13.5937507,-5.10092 0,15.21483 c 0.5753434,53.36034 0,75.50541 0,130.65996 l 0,15.2147 15.3125007,0 6.375,0 15.34375,0 0,-15.2147 c -0.206052,-5.268 -0.350544,-10.5164 -0.53125,-15.7719 3.601173,0.013 7.15257,-3e-4 10.65625,0 26.211201,1.1783 52.698237,-1.2368 78.656197,-1.1436 2.73048,0.012 5.4473,-0.02 8.15625,-0.029 0.24303,0.014 0.41698,-0.012 0.65625,0 4.49342,0.1785 8.38745,-0.3262 11.5625,-0.6743 l 0.0625,0 0.125,0 c 6.696,-0.8457 13.4337,-1.6921 20.1875,-2.5504 2.3506,-0.1958 4.87544,-0.2788 7.75,-0.3225 l 0.15625,0 0.0937,0 c 3.49498,-0.1317 7.04735,-0.023 10.625,0.3225 l 0.0937,0 c 3.25183,0.4151 6.95439,1.1096 11.3125,1.583 l 0.125,0.058 0.0625,0 c 2.19967,0.2056 4.19918,0.2551 5.96875,0.3224 l 1.75,0.088 1.71875,-0.4983 0.90625,-0.2639 0,18.8793 0,15.2149 15.375,0 6.375,0 15.3125,0 0,-15.2149 0,-15.5666 c 3.68582,-0.1059 7.44136,-0.1303 11.28125,-0.1466 0.0253,1e-4 0.0372,0 0.0625,0 47.40203,-4.1663 91.15966,3.7747 138.4062,3.6062 l 0.28125,0 c 3.70325,0.073 7.56087,-0.012 11.5625,-0.4691 2.95183,-0.3362 5.87252,-0.7241 8.8125,-1.0846 l -0.28125,13.6611 0,15.2147 15.3125,0 6.375,0 15.34375,0 0,-15.2147 0,-12.9576 c 7.29718,-0.4117 14.8508,-0.4273 22.625,-0.4984 0.0124,-10e-5 0.019,0 0.0312,0 10.78789,-0.067 21.63202,-0.014 32.53125,0 0.0125,0 0.0189,-10e-5 0.0312,0 33.99218,0.087 67.85428,-3.2914 101.65615,-3.4882 0.0248,0 0.0377,10e-5 0.0625,0 4.38147,-0.012 8.77091,-0.016 13.15625,0 l 0,16.9445 0,15.2147 15.34375,0 6.375,0 15.3125,0 0,-15.2147 0,-16.5048 c 3.50853,0.1767 7.10675,0.3574 10.71875,0.4984 0.0127,5e-4 0.0185,-5e-4 0.0312,0 29.85404,0.5243 59.35926,0.3173 88.906,0.2932 3.31276,0.089 7.17359,0.573 11.65625,0.8794 3.63849,0.3178 7.66452,0.8416 12.1875,1.1727 l 0.0625,0 0.0312,0 c 4.15595,0.2717 8.1362,0.3281 11.875,0.3518 l 0.0312,0 c 4.14897,0 7.88561,-0.045 11.25,0.1759 l 0.25,0 c 3.94054,0.3611 7.95671,0.6815 12.03125,0.8794 l 0.0312,0 0.0937,0 c 3.71917,0.1452 7.20513,0.1373 10.53125,0.1466 l 0.46875,0 0,12.1074 0,15.2147 15.34375,0 6.34375,0 15.34375,0 0,-15.2147 0,-15.684 c 3.58595,-0.1364 7.30789,-0.057 11.1875,0.088 l 0.0937,0 c 7.53644,0.3623 14.65852,-0.026 21.5625,-0.5277 4.55018,-0.081 9.13691,-0.1981 13.625,-0.2931 4.16274,-0.093 8.77434,0.1181 13.875,0.058 0.0242,0 0.0696,2e-4 0.0937,0 13.56137,-0.064 27.88177,0.1062 42.59375,-1.6709 0.65113,0.04 1.17821,0.044 1.84375,0.088 0.0134,8e-4 0.018,-8e-4 0.0312,0 4.60736,0.3141 9.17837,0.5879 13.6875,0.8795 l 0.21875,0 0.1875,0 c 13.68111,0.3918 27.23461,-0.3879 40.50011,-1.759 l 0.2813,-0.058 0.2187,-0.029 c 4.1774,-0.6078 7.4574,-1.4185 10.0937,-1.847 l 0,20.7555 0,15.2149 15.3438,0 6.375,0 15.3438,0 0,-15.2149 0,-79.03498 c 0.991,-0.37223 2.2187,-0.7915 2.2187,-0.79153 10e-5,-10e-6 -1.2939,-3.7312 -2.2187,-6.47876 l 0,-44.35459 0,-15.21483 -15.3438,11.84353 -6.375,-11.84353 -15.3438,0 0,15.21483 0,32.27654 c -4.8786,0.24547 -9.7611,0.47441 -14.625,0.64495 -11.7877,0.42266 -23.4839,1.18983 -35.12506,2.11072 -0.0368,0.003 -0.0569,-0.003 -0.0937,0 -8.93431,0.624 -17.95957,1.20535 -27,1.87621 -0.0124,9.1e-4 -0.0189,-9.3e-4 -0.0312,0 -8.76543,0.63231 -17.47456,1.33684 -26.125,1.93483 l -0.0312,0 c -7.55869,0.54557 -15.11247,1.07488 -22.65625,1.55373 -0.0124,7.9e-4 -0.019,-7.8e-4 -0.0312,0 -6.57284,0.39243 -12.9071,0.65571 -18.96875,0.46905 -0.0444,-0.003 -0.1119,0.003 -0.15625,0 -5.56889,-0.25433 -11.74765,-0.97992 -18.625,-1.114 -0.0274,-5.2e-4 -0.0351,5.2e-4 -0.0625,0 -0.67252,-0.0161 -1.04607,0.0827 -1.6875,0.0879 l -0.4375,-3.63514 -4.4375,1.55373 0,-10.17253 c -3.28004,1.91697 -7.68319,5.84447 0,-11.84353 l 0,-15.74251 0,-15.21482 -15.34375,0 -6.34375,0 c -10.23979,58.71549 -7.64801,8.68524 -15.34375,15.21482 l 0,24.12679 c -1.79987,0.002 -3.61103,0.005 -5.375,0 -0.0134,-10e-5 -0.018,9e-5 -0.0312,0 -2.9601,-0.0215 -5.72956,-0.0857 -8.28125,-0.29316 -0.042,-0.004 -0.11392,0.005 -0.15625,0 -34.86284,-0.11489 -73.67337,-5.39351 -108.06235,-1.2606 -0.0135,9.4e-4 -0.0177,-9.4e-4 -0.0312,0 -3.62056,0.44141 -7.59761,0.46924 -12.0625,0.41042 l -0.125,0 -0.0625,0 c -6.55487,0.006 -13.0225,0.0366 -19.4375,-0.0586 -0.013,-2.4e-4 -0.0495,2.4e-4 -0.0625,0 -5.73628,-0.10502 -11.22166,-0.24828 -16.46815,-0.67426 l 0,-22.25059 0,-15.21482 -15.3125,0 c 0.18495,2.98948 -2.59417,3.76081 -11.46875,0 l -10.25,0 0,15.21482 c 1.95471,2.28005 10.45398,-6.2335 0,16.59267 l 0,11.75558 -0.40625,0 -1.96875,-0.0293 -1.875,0.67426 c -1.59246,0.54162 -2.80054,0.82643 -4.125,1.20194 -6.32294,-0.004 -12.63328,-0.0118 -19,0 -44.55324,1.19737 -88.1761,-2.65157 -132.0311,-2.46249 l -0.0312,0 c -3.62685,-0.002 -7.16971,-0.0217 -10.65625,-0.0586 l 0,-11.93147 c -2.56338,-1.83906 -4.16688,-4.98836 0,-15.74251 l 0,-15.21483 -15.34375,0 -8.09375,0 -13.59375,0 0,15.21483 0.75,81.17506 c -2.47539,-1.34448 -4.72804,-2.3039 -6.71875,-3.22472 l -0.53125,-0.20521 -0.53125,-0.20521 c -15.63866,-5.15583 -30.82034,-10.14921 -46.0937,-15.21483 -3.29175,-1.09168 -6.58485,-2.16669 -9.875,-3.25404 -0.0119,-0.004 -0.051,0.004 -0.0625,0 -3.02178,-1.009 -5.93635,-1.95152 -8.8125,-2.90225 -22.81694,-8.1716 -45.39764,-16.9091 -68.3436,-23.56977 l -0.0312,0 -0.0312,0 c -5.11304,-1.43524 -10.34366,-2.69557 -15.625,-3.84035 l 0.6875,-1.40715 -14.90625,-1.28989 0,-7.53413 c 13.30373,-1.9868 25.01631,-7.20058 22.5,-12.9282 -0.9077,-2.0661 -6.37804,6.64001 -22.5,8.2377 l 0,-13.83699 0,-11.25722 c 4.59985,-3.16832 -0.63014,-3.36893 -0.89837,-8.57716 -4.70241,-10.99921 3.06966,-19.27891 4.48575,-29.13017 -1.65383,2.75602 9.45785,-12.37725 -1.27538,-33.61776 10.60083,-8.88392 15.69476,-5.45171 18.6875,-12.01942 2.27726,-4.99755 -3.62108,-6.58504 -3.84375,-9.93801 -0.2994,-4.50776 -5.6298,-6.92246 -11.34375,-7.32891 -1.12208,-1.80486 0.34648,-5.87136 -1.3125,-10.52433 z m -43.65625,109.66988 c 0.72278,-0.004 1.38867,-7.2e-4 2.09375,0 l 0,11.37448 c -1.95122,-3.58177 -2.70697,-7.48402 -2.09375,-11.37448 z m 39.15625,63.87882 c 2.50579,0.55601 5.05167,1.04203 7.6875,1.46579 2.42544,0.80127 4.92193,1.63477 7.4375,2.46251 17.89667,4.93514 34.76605,12.41169 51.9687,18.17568 2.89617,0.96625 5.84954,1.96024 8.84375,2.93157 0.0119,0.004 0.0199,-0.004 0.0312,0 20.42905,2.99994 48.00176,15.93674 72.10571,17.35589 -58.41629,2.0127 -60.43689,-6.91421 -110.29316,-9.26473 l -0.0625,0 c -1.43661,0.26461 -2.88617,0.61462 -4.03125,0.87947 -4.63782,0.0118 -9.34524,0.0301 -14.1875,0.23453 -0.0128,5.9e-4 -0.0186,-5.9e-4 -0.0312,0 -6.36864,0.25256 -12.8813,0.6587 -19.46875,1.37784 z m 553.43745,2.72638 0.0312,0 0.0312,0 c 2.66621,0.06 5.2473,0.0889 7.71875,0.0879 2.40258,-0.003 4.78874,9.3e-4 7.1875,0 2.56682,0.004 5.07781,-0.0258 7.59375,-0.0293 l 0.25,0 0.28125,0 c -0.14297,0.006 0.62166,0.0376 2.375,0.29315 l 2.3125,0.32248 2.1875,-0.557 1.03125,-0.26384 0,34.03548 c -3.07959,-0.2002 -6.2778,-0.27786 -9.5625,-0.1759 -0.15466,0 -0.28331,1.3e-4 -0.4375,0 -36.62272,-3.36097 -73.32727,-2.32192 -109.62485,-2.43314 -4.87355,0 -9.6547,-0.0246 -14.34375,-0.14658 -6.62122,-0.18716 -13.09181,-0.45159 -19.46875,-0.99673 l -0.5,-0.0293 -0.4375,0 c -0.64038,0 -1.24037,9.4e-4 -1.875,0 l 0,-3.63514 -13.90625,3.78172 0,-31.54365 c 3.72455,0.0454 7.46068,0.10574 11.15625,0.11726 l 0.0312,0 0.0312,0 c 42.56167,-2.9983 85.45609,-0.0331 127.93755,1.17259 z M 58.782043,959.22698 c 1.558573,-0.011 3.153067,-9.4e-4 4.78125,0 0.01235,3e-5 0.01889,-4e-5 0.03125,0 3.151363,0.009 6.304278,0.0186 9.5,0.0293 38.636807,-0.44675 76.363767,1.2459 114.749797,1.17262 0.0123,2e-5 0.0189,-3e-5 0.0312,0 3.25746,0.005 6.55766,0.009 9.875,0 0.0125,-4e-5 0.0187,4e-5 0.0312,0 2.87759,-9.4e-4 5.7717,0.0538 8.6875,0.0586 0.11268,1.9e-4 0.19982,-1.8e-4 0.3125,0 3.08127,0.0732 5.26482,-0.0649 6.0625,0.0293 l 0.53125,0.0586 0,26.53068 c -2.41068,-0.19573 -5.00433,-0.34324 -7.84375,-0.23453 -0.19899,0.008 -0.36134,-0.009 -0.5625,0 -3.17224,0.008 -6.38736,0.0574 -9.71875,0.23453 l -0.15625,0 -0.125,0.0293 c -6.31148,0.47548 -8.06566,0.68752 -12.25,1.26058 -0.17778,0.0243 -0.83648,0.0907 -1.03125,0.11726 -5.30232,0.63297 -10.58231,1.27824 -15.875,1.93483 -2.86422,-0.0142 -5.70666,0 -8.53125,0 -3.3305,9.4e-4 -6.62188,-9.3e-4 -9.90625,0 -23.008,1.25148 -46.08572,1.14903 -68.937297,1.23126 -3.682293,0 -7.39541,0.0104 -11.15625,0.0293 l -0.03125,0 c -4.432552,0.0118 -8.779109,0.0115 -13.03125,-0.0879 -0.02753,-9.4e-4 -0.06626,8.3e-4 -0.09375,0 -0.207163,-0.0118 -0.357512,-0.0526 -0.5625,-0.0586 l 0,-4.13351 -11.6875,2.9902 c -0.190438,-9.86189 -0.274699,-19.67788 -0.25,-29.43292 4.185351,-0.54324 8.382069,-1.13851 12.5625,-1.70031 1.52725,-0.0312 3.035177,-0.0477 4.59375,-0.0586 z m 568.906247,4.6905 0,26.61862 c -5.69726,0.13379 -11.2999,0.54261 -16.84375,1.14331 l -0.15625,0 -0.0625,0 c -3.54121,0.0118 -7.09861,-0.007 -10.65625,0.0293 -5.42484,0.0522 -11.11164,0.066 -17,0.35179 l -0.1875,0 -0.1875,0.0293 c -4.77328,0.38272 -7.97586,0.92815 -9.875,0.82084 l -0.34375,0 -0.375,0 c -3.878,0.0213 -7.9218,0.16336 -12.09375,0.61562 -0.0899,0.0118 -0.15997,-0.0118 -0.25,0 -7.3706,0.6367 -14.8009,0.83951 -22.34375,0.67426 l -0.125,0 -0.15625,0 c -11.02916,0 -22.01136,-0.008 -33.03125,0.0293 l -0.0625,0 c -10.00292,0.0497 -20.35013,-0.0186 -31,0.70358 l -0.28125,0.0586 -0.3125,0.0293 c -4.75307,0.57589 -9.70209,1.10503 -14.75,1.67099 l 0,-32.65764 c 3.04219,9e-5 6.0867,-2.7e-4 9.09375,0 l 0.0312,0 c 5.17777,-0.0253 10.39303,-0.0209 15.65625,-0.0293 l 0.0625,0 0.0937,0 c 5.35177,-0.0709 10.98791,0.37922 16.875,0.99673 8.46092,0.8906 16.68338,1.10759 24.625,1.26057 8.32919,0.16166 16.54071,0.0915 24.625,0.0879 9.0618,-0.0237 18.14427,-0.0173 27.21875,0 l 0.0312,0 c 8.61052,0.0107 17.18503,-0.0412 25.71875,-0.0293 l 0.25,0 0.28125,0 c 8.58411,-0.40509 17.10821,-1.24852 25.53125,-2.40389 z m 414.31251,4.80777 0,20.72617 -11.6562,-1.02605 -1.75,-0.14657 -1.75,0.3811 c -1.471,0.31847 -2.9519,0.64474 -4.4375,1.02605 -2.9653,0.61574 -5.7174,1.16063 -8.2187,1.46578 l -0.3126,0.0586 -0.375,0.0586 c -0.99,0.18408 -1.5378,0.2351 -2.4374,0.41042 -2.4199,-0.17248 -4.7966,-0.36398 -7.2501,-0.52768 l -0.031,0 c -4.18256,-0.26818 -8.53821,-0.51902 -13.06246,-0.64494 l -0.0937,0 -0.0937,0 c -11.04031,-0.12806 -22.28223,0.39821 -33.53125,2.05209 -4.37273,0.0308 -8.87216,-0.0409 -13.625,-0.0586 l -0.15625,0 -0.1875,0 c -6.83334,0.15363 -13.20374,0.50998 -19.21875,0.3811 l -0.46915,-0.0586 -0.4375,0.0586 c -3.82275,0.20493 -7.6418,0.41189 -11.46875,0.61563 -0.23605,0.013 -0.48269,0.0174 -0.71875,0.0293 0.0278,-0.0118 -0.12519,-0.0382 -1,-0.0879 l -0.0312,0 -0.0312,0 c -4.71273,-0.24295 -9.53537,-0.3743 -14.46875,-0.23452 l -0.15625,0 -0.15625,0 c -1.55872,0.0853 -3.10005,0.17749 -4.65625,0.26384 -0.11173,0.0118 -0.20081,-0.0118 -0.3125,0 -0.0913,0 -0.31064,0.0246 -0.40625,0.0293 l -0.125,0 c -0.71075,0.0379 -2.12843,0.098 -3.03125,0.14657 -0.38027,-0.0237 -0.61007,-0.0329 -0.875,-0.0293 -0.61855,0.0118 -1.15824,0.0113 -2.03125,0.0586 -3.85788,0.20701 -7.6779,0.45603 -11.53125,0.67426 l 0,-15.83046 c 0.0391,0.002 0.0547,-0.002 0.0937,0 l 0.0625,0 0.0312,0 c 7.32353,0.34558 14.38968,0.0869 21.21875,-0.23452 l 0.0937,0 0.0625,0 c 7.92262,-0.4645 15.70771,-1.11196 23.375,-1.671 l 0.0312,0 c 8.58708,-0.65491 17.2581,-1.21893 25.96875,-1.84688 0.0124,-8.8e-4 0.0189,8.6e-4 0.0312,0 9.22044,-0.64524 18.38445,-1.35038 27.5,-2.02278 l 0.0312,0 c 11.56213,-0.89298 23.10362,-1.70836 34.56246,-2.22799 0.012,-5.4e-4 0.019,5.3e-4 0.031,0 11.9269,-0.51201 23.88,-1.07149 35.8127,-1.70031 l 0.031,0 0.031,0 c 0.3796,-0.0226 0.7482,-0.0615 1.125,-0.0879 z"
       id="path2985"
       inkscape:connector-curvature="0"
       sodipodi:nodetypes="cccccccccccccccccccccccccccccccccccccccccsccccccccccccccccccccccccccccccccccccccccccccccccccccccccccccccccccccsccccccccccccccccccccccccccccccccccccccccccccccccccccccccccccccccccccccccccccccccccccccccccccccccccccccccccccccccccccccccsccccccsscccccccsccccccccccccsccccccccccccccccccscccccccccccccccsccccccccccccccccccccccccsccccccccccccccccsccccccccccccccccccccccccccccccccccccccccccccccccccccccccccccccccccccccccccccccccccc" />
  </g>
</svg>
