<svg xmlns="http://www.w3.org/2000/svg" width="349.125" height="62" viewBox="0 0 349.125 62">
  <g id="Group_1" data-name="Group 1" transform="translate(-55 -39)">
    <text id="GETROASTED" transform="translate(55 88)" fill="#d1512d" font-size="46" font-family="AbrilFatface-Regular, Abril Fatface"><tspan x="0" y="0">GET</tspan><tspan y="0" fill="#f7eeeb">ROASTED</tspan></text>
    <path id="mug-hot-solid_1_" data-name="mug-hot-solid (1)" d="M5.2,0A1.415,1.415,0,0,0,3.781,1.418a5.461,5.461,0,0,0,2.31,4.319l.065.059c.963.839,1.406,1.288,1.406,2.239a1.418,1.418,0,0,0,2.836,0,5.461,5.461,0,0,0-2.31-4.319l-.065-.059C7.06,2.818,6.617,2.369,6.617,1.418A1.415,1.415,0,0,0,5.2,0ZM1.891,11.344A1.889,1.889,0,0,0,0,13.234V24.578A5.673,5.673,0,0,0,5.672,30.25H17.016a5.673,5.673,0,0,0,5.672-5.672h.945a6.617,6.617,0,0,0,0-13.234H1.891Zm20.8,3.781h.945a2.836,2.836,0,0,1,0,5.672h-.945ZM13.234,1.418a1.418,1.418,0,0,0-2.836,0,5.461,5.461,0,0,0,2.31,4.319l.065.059c.963.839,1.406,1.288,1.406,2.239a1.418,1.418,0,0,0,2.836,0,5.461,5.461,0,0,0-2.31-4.319l-.065-.059C13.677,2.818,13.234,2.369,13.234,1.418Z" transform="translate(373.875 55.375)" fill="#f7eeeb"/>
  </g>
</svg>
