<?xml version="1.0" encoding="UTF-8"?>
<svg width="206.95mm" height="245.3mm" clip-rule="evenodd" fill-rule="evenodd" image-rendering="optimizeQuality" shape-rendering="geometricPrecision" text-rendering="geometricPrecision" version="1.1" viewBox="0 0 20308 24071" xmlns="http://www.w3.org/2000/svg">
 <defs>
  <style type="text/css">.str0 {stroke:#A75F4A;stroke-width:19.6259} .fil0 {fill:#A75F4A}</style>
 </defs>
 <path class="fil0 str0" d="m2716 18847c-2221 659-3279 2450-222 3455 4978 1637 9455 1513 13926 575 2999-629 4133-1665 3326-2933 1527 1495-321 2647-2997 3357-4384 1163-10779 990-14728-507-3281-1244-2189-3179 694-3947zm9721-17295c-1182 645-1142 1243-898 1686 26-576 105-797 1215-1474 1063-647 664-1329 355-1721 159 608 260 1e3 -673 1509zm656 5074c-1695 925-2526 1692-2846 2513-977-120-2293-13-3695 411-1054 319-2428 1173-2164 1761-1511 3638-257 7881 3485 9291-2020-1611-4343-3261-3215-8652 1629 1180 3369 1205 5148 1233 1964 31 4107-163 5592-1060 2199 3578-1161 7197-4203 8771 2290-957 4515-1752 5419-4788 505-1697 315-3404-719-5372-16 645-137 830-1232 1460 1500-1013-951-2132-3877-2244 86-178 197-353 342-532 635 25 1283 67 1931 110-483-223-1201-311-1829-354 498-561 1341-1052 2786-1931 3090-1881 1930-3861 1031-5001 461 1766 755 2906-1955 4384zm-2894 2771c-61 186-96 368-110 546-1486 27-3022 325-4179 1034 1133-456 2692-716 4174-744 23 467 184 900 400 1292 23-502 60-911 187-1291 1211 28 2322 220 3041 597 1501 787 734 1470-473 1762-917 142-2080 209-3506 189-4647-66-5281-1558-4532-2156 1252-998 3036-1239 4997-1228zm2540-5839c-2008 1095-1941 2111-1525 2864 45-978 178-1355 2065-2503 1807-1100 1129-2257 603-2924 270 1032 442 1699-1143 2563zm2961 15701c1474-1267 4299-3451 1827-5244-1066-773-45-2018 1261-1297 1355 747 1929 2120 585 3819-1052 1329-2422 2047-3673 2723z"/>
</svg>
